<svg width="129" height="40" viewBox="0 0 129 40" fill="none" xmlns="http://www.w3.org/2000/svg">
<rect width="40" height="40" rx="10" fill="url(#paint0_linear_25_3)"/>
<path d="M14.6981 22.1295C14.4552 22.7827 14.2489 23.387 14.0644 23.9971C15.0693 23.2673 16.2657 22.8041 17.6449 22.6316C20.2778 22.3026 22.6165 20.564 23.8006 18.3799L22.2755 16.8559L23.7555 15.3738C24.1051 15.0237 24.4546 14.6739 24.8042 14.3244C25.2539 13.8746 25.7619 13.0421 26.2992 11.8441C20.4397 12.7523 16.8517 16.34 14.6981 22.1295ZM25.2381 16.8543L26.2857 17.9012C25.2381 21.0441 22.0952 24.1869 17.9048 24.7107C15.1091 25.0601 13.3625 26.9808 12.6648 30.4726H10.5714C11.619 24.1869 13.7143 9.52023 29.4286 9.52023C28.3819 12.6603 27.3352 14.7546 26.2885 15.8032C25.936 16.1556 25.587 16.5049 25.2381 16.8543Z" fill="white"/>
<path d="M57.0156 23.3086C57.0156 23.0352 56.9733 22.791 56.8887 22.5762C56.8105 22.3548 56.6641 22.1562 56.4492 21.9805C56.2409 21.7982 55.9447 21.6224 55.5605 21.4531C55.1829 21.2773 54.6947 21.0951 54.0957 20.9062C53.4316 20.6979 52.8132 20.4635 52.2402 20.2031C51.6673 19.9427 51.1628 19.64 50.7266 19.2949C50.2969 18.9499 49.9616 18.5527 49.7207 18.1035C49.4798 17.6478 49.3594 17.1204 49.3594 16.5215C49.3594 15.9355 49.4831 15.4017 49.7305 14.9199C49.9844 14.4382 50.3424 14.0247 50.8047 13.6797C51.2669 13.3281 51.8105 13.0579 52.4355 12.8691C53.0671 12.6803 53.7637 12.5859 54.5254 12.5859C55.5801 12.5859 56.4915 12.778 57.2598 13.1621C58.0345 13.5462 58.6335 14.0671 59.0566 14.7246C59.4798 15.3822 59.6914 16.1211 59.6914 16.9414H57.0156C57.0156 16.4987 56.9212 16.1081 56.7324 15.7695C56.5501 15.431 56.2702 15.1641 55.8926 14.9688C55.5215 14.7734 55.0527 14.6758 54.4863 14.6758C53.9395 14.6758 53.4837 14.7572 53.1191 14.9199C52.7611 15.0827 52.4909 15.304 52.3086 15.584C52.1328 15.8639 52.0449 16.1764 52.0449 16.5215C52.0449 16.7819 52.1068 17.0163 52.2305 17.2246C52.3542 17.4264 52.5397 17.6185 52.7871 17.8008C53.0345 17.9766 53.3405 18.1426 53.7051 18.2988C54.0762 18.4486 54.5059 18.5983 54.9941 18.748C55.7754 18.9824 56.459 19.2428 57.0449 19.5293C57.6374 19.8158 58.1289 20.1413 58.5195 20.5059C58.9167 20.8704 59.2129 21.2806 59.4082 21.7363C59.61 22.1921 59.7109 22.7096 59.7109 23.2891C59.7109 23.901 59.5905 24.4479 59.3496 24.9297C59.1087 25.4115 58.7637 25.8216 58.3145 26.1602C57.8652 26.4987 57.3249 26.7559 56.6934 26.9316C56.0684 27.1074 55.3685 27.1953 54.5938 27.1953C53.9036 27.1953 53.2201 27.1042 52.543 26.9219C51.8724 26.7331 51.2637 26.4531 50.7168 26.082C50.1699 25.7044 49.7337 25.2292 49.4082 24.6562C49.0827 24.0768 48.9199 23.3997 48.9199 22.625H51.6152C51.6152 23.0742 51.6868 23.4583 51.8301 23.7773C51.9798 24.0898 52.1882 24.347 52.4551 24.5488C52.7285 24.7441 53.0475 24.8874 53.4121 24.9785C53.7767 25.0697 54.1706 25.1152 54.5938 25.1152C55.1406 25.1152 55.5898 25.0404 55.9414 24.8906C56.2995 24.7344 56.5664 24.5195 56.7422 24.2461C56.9245 23.9727 57.0156 23.6602 57.0156 23.3086ZM64.1641 11.9902V27H61.5859V11.9902H64.1641ZM70.7852 16.4336L66.1855 21.5996L63.6953 24.1289L62.875 22.127L64.7988 19.7051L67.6699 16.4336H70.7852ZM68.1484 27L64.877 22.0781L66.5957 20.4082L71.1367 27H68.1484ZM76.7031 27.1953C75.9023 27.1953 75.1829 27.0651 74.5449 26.8047C73.9069 26.5443 73.3633 26.1829 72.9141 25.7207C72.4714 25.252 72.1296 24.7083 71.8887 24.0898C71.6543 23.4648 71.5371 22.7943 71.5371 22.0781V21.6875C71.5371 20.8737 71.6543 20.1348 71.8887 19.4707C72.123 18.8001 72.4551 18.224 72.8848 17.7422C73.3145 17.2604 73.8288 16.8893 74.4277 16.6289C75.0267 16.3685 75.6875 16.2383 76.4102 16.2383C77.1589 16.2383 77.8197 16.3652 78.3926 16.6191C78.9655 16.8665 79.444 17.2181 79.8281 17.6738C80.2122 18.1296 80.502 18.6764 80.6973 19.3145C80.8926 19.946 80.9902 20.6458 80.9902 21.4141V22.498H72.709V20.7207H78.4512V20.5254C78.4382 20.1152 78.36 19.7409 78.2168 19.4023C78.0736 19.0573 77.8522 18.7839 77.5527 18.582C77.2533 18.3737 76.8659 18.2695 76.3906 18.2695C76.0065 18.2695 75.6712 18.3542 75.3848 18.5234C75.1048 18.6862 74.8704 18.9206 74.6816 19.2266C74.4993 19.526 74.3626 19.8841 74.2715 20.3008C74.1803 20.7174 74.1348 21.1797 74.1348 21.6875V22.0781C74.1348 22.5208 74.1934 22.931 74.3105 23.3086C74.4342 23.6862 74.6133 24.015 74.8477 24.2949C75.0885 24.5684 75.375 24.7832 75.707 24.9395C76.0456 25.0892 76.4297 25.1641 76.8594 25.1641C77.3997 25.1641 77.888 25.0599 78.3242 24.8516C78.7669 24.6367 79.151 24.321 79.4766 23.9043L80.7754 25.252C80.554 25.5775 80.2546 25.89 79.877 26.1895C79.5059 26.4889 79.0566 26.7331 78.5293 26.9219C78.002 27.1042 77.3932 27.1953 76.7031 27.1953ZM87.7188 16.4336V18.2891H81.6641V16.4336H87.7188ZM83.2852 13.8359H85.873V23.9531C85.873 24.2656 85.9154 24.5065 86 24.6758C86.0846 24.8451 86.2116 24.959 86.3809 25.0176C86.5501 25.0762 86.752 25.1055 86.9863 25.1055C87.1556 25.1055 87.3118 25.0957 87.4551 25.0762C87.5983 25.0566 87.7188 25.0371 87.8164 25.0176L87.8262 26.9512C87.6113 27.0228 87.3672 27.0814 87.0938 27.127C86.8268 27.1725 86.5241 27.1953 86.1855 27.1953C85.6061 27.1953 85.0983 27.0977 84.6621 26.9023C84.2259 26.7005 83.8874 26.3783 83.6465 25.9355C83.4056 25.4863 83.2852 24.8939 83.2852 24.1582V13.8359ZM93.7734 25.1641C94.138 25.1641 94.4635 25.0924 94.75 24.9492C95.0365 24.806 95.2643 24.6042 95.4336 24.3438C95.6094 24.0833 95.7038 23.7806 95.7168 23.4355H98.1484C98.1354 24.1517 97.9336 24.793 97.543 25.3594C97.1523 25.9258 96.6315 26.375 95.9805 26.707C95.3359 27.0326 94.6133 27.1953 93.8125 27.1953C92.9987 27.1953 92.2891 27.0586 91.6836 26.7852C91.0781 26.5117 90.5736 26.1309 90.1699 25.6426C89.7728 25.1543 89.4733 24.5879 89.2715 23.9434C89.0762 23.2988 88.9785 22.6087 88.9785 21.873V21.5605C88.9785 20.8249 89.0762 20.1348 89.2715 19.4902C89.4733 18.8457 89.7728 18.2793 90.1699 17.791C90.5736 17.3027 91.0781 16.9219 91.6836 16.6484C92.2891 16.375 92.9954 16.2383 93.8027 16.2383C94.6556 16.2383 95.4043 16.4043 96.0488 16.7363C96.6999 17.0684 97.2077 17.5371 97.5723 18.1426C97.9434 18.748 98.1354 19.4609 98.1484 20.2812H95.7168C95.7038 19.9036 95.6191 19.5651 95.4629 19.2656C95.3066 18.9661 95.0853 18.7253 94.7988 18.543C94.5124 18.3607 94.1641 18.2695 93.7539 18.2695C93.3177 18.2695 92.9531 18.3607 92.6602 18.543C92.3737 18.7253 92.1491 18.9759 91.9863 19.2949C91.8301 19.6074 91.7194 19.959 91.6543 20.3496C91.5957 20.7337 91.5664 21.1374 91.5664 21.5605V21.873C91.5664 22.3027 91.5957 22.7129 91.6543 23.1035C91.7194 23.4941 91.8301 23.8457 91.9863 24.1582C92.1491 24.4642 92.3737 24.7083 92.6602 24.8906C92.9531 25.0729 93.3242 25.1641 93.7734 25.1641ZM102.396 12V27H99.8086V12H102.396ZM101.986 21.3359H101.225C101.225 20.6003 101.322 19.9232 101.518 19.3047C101.713 18.6862 101.99 18.1491 102.348 17.6934C102.706 17.2311 103.132 16.873 103.627 16.6191C104.128 16.3652 104.682 16.2383 105.287 16.2383C105.808 16.2383 106.28 16.3132 106.703 16.4629C107.133 16.6061 107.501 16.8372 107.807 17.1562C108.113 17.4753 108.347 17.8919 108.51 18.4062C108.679 18.9141 108.764 19.5326 108.764 20.2617V27H106.166V20.2422C106.166 19.7539 106.094 19.3698 105.951 19.0898C105.808 18.8034 105.603 18.5983 105.336 18.4746C105.076 18.3509 104.753 18.2891 104.369 18.2891C103.952 18.2891 103.594 18.3704 103.295 18.5332C102.995 18.6895 102.748 18.9076 102.553 19.1875C102.364 19.4674 102.221 19.7897 102.123 20.1543C102.032 20.5189 101.986 20.9128 101.986 21.3359ZM119.145 12.7812H121.83V22.2246C121.83 23.3118 121.596 24.2266 121.127 24.9688C120.658 25.7044 120.02 26.2611 119.213 26.6387C118.406 27.0098 117.488 27.1953 116.459 27.1953C115.417 27.1953 114.49 27.0098 113.676 26.6387C112.862 26.2611 112.224 25.7044 111.762 24.9688C111.299 24.2266 111.068 23.3118 111.068 22.2246V12.7812H113.754V22.2246C113.754 22.8887 113.865 23.4323 114.086 23.8555C114.307 24.2721 114.62 24.5814 115.023 24.7832C115.427 24.985 115.906 25.0859 116.459 25.0859C117.019 25.0859 117.497 24.985 117.895 24.7832C118.298 24.5814 118.607 24.2721 118.822 23.8555C119.037 23.4323 119.145 22.8887 119.145 22.2246V12.7812ZM127.24 12.7812V27H124.555V12.7812H127.24Z" fill="#1A2947"/>
<defs>
<linearGradient id="paint0_linear_25_3" x1="1.42857" y1="2" x2="38.2857" y2="38.2857" gradientUnits="userSpaceOnUse">
<stop stop-color="#2991FD"/>
<stop offset="1" stop-color="#3361FF"/>
</linearGradient>
</defs>
</svg>
